REM DIRINDEX 1\5,1\2\6,1\2\7,1\3\8,1\3\9,1\4\10,1\4\11,1\4\12
REM DIRNAME cjc026,folder01,folder02,folder03,folder04,folder05,folder06,folder07,folder08,folder09,folder10,folder11
TITLE ""
FILE "EJE_DB3000_5th_2A_47.mp3" MP3
  TRACK 01 AUDIO
    TITLE "0:"
    INDEX 01 00:00:00
  TRACK 02 AUDIO
    TITLE "10:cjc026_08148"
    INDEX 01 00:00:08
  TRACK 03 AUDIO
    TITLE "0:"
    INDEX 01 00:01:24
  TRACK 04 AUDIO
    TITLE "11:cjc026_08149"
    INDEX 01 00:01:62
  TRACK 05 AUDIO
    TITLE "0:"
    INDEX 01 00:03:39
  TRACK 06 AUDIO
    TITLE "12:cjc026_08150"
    INDEX 01 00:03:74
  TRACK 07 AUDIO
    TITLE "0:"
    INDEX 01 00:05:16
  TRACK 08 AUDIO
    TITLE "10:cjc026_08151"
    INDEX 01 00:05:54
  TRACK 09 AUDIO
    TITLE "0:"
    INDEX 01 00:06:57
  TRACK 10 AUDIO
    TITLE "11:cjc026_08152"
    INDEX 01 00:07:28
  TRACK 11 AUDIO
    TITLE "0:"
    INDEX 01 00:08:45
  TRACK 12 AUDIO
    TITLE "12:cjc026_08153"
    INDEX 01 00:09:05
  TRACK 13 AUDIO
    TITLE "0:"
    INDEX 01 00:10:08
  TRACK 14 AUDIO
    TITLE "10:cjc026_08154"
    INDEX 01 00:10:51
  TRACK 15 AUDIO
    TITLE "0:"
    INDEX 01 00:11:68
  TRACK 16 AUDIO
    TITLE "11:cjc026_08155"
    INDEX 01 00:12:31
  TRACK 17 AUDIO
    TITLE "0:"
    INDEX 01 00:13:53
  TRACK 18 AUDIO
    TITLE "12:cjc026_08156"
    INDEX 01 00:14:13
  TRACK 19 AUDIO
    TITLE "0:"
    INDEX 01 00:15:27
  TRACK 20 AUDIO
    TITLE "10:cjc026_08157"
    INDEX 01 00:15:65
  TRACK 21 AUDIO
    TITLE "0:"
    INDEX 01 00:17:04
  TRACK 22 AUDIO
    TITLE "11:cjc026_08158"
    INDEX 01 00:17:42
  TRACK 23 AUDIO
    TITLE "0:"
    INDEX 01 00:18:62
  TRACK 24 AUDIO
    TITLE "12:cjc026_08159"
    INDEX 01 00:19:22
  TRACK 25 AUDIO
    TITLE "0:"
    INDEX 01 00:20:39
  TRACK 26 AUDIO
    TITLE "10:cjc026_08160"
    INDEX 01 00:20:74
  TRACK 27 AUDIO
    TITLE "0:"
    INDEX 01 00:22:05
  TRACK 28 AUDIO
    TITLE "11:cjc026_08161"
    INDEX 01 00:22:42
  TRACK 29 AUDIO
    TITLE "0:"
    INDEX 01 00:23:59
  TRACK 30 AUDIO
    TITLE "12:cjc026_08162"
    INDEX 01 00:24:19
  TRACK 31 AUDIO
    TITLE "0:"
    INDEX 01 00:25:25
  TRACK 32 AUDIO
    TITLE "10:cjc026_08163"
    INDEX 01 00:25:60
  TRACK 33 AUDIO
    TITLE "0:"
    INDEX 01 00:26:72
  TRACK 34 AUDIO
    TITLE "11:cjc026_08164"
    INDEX 01 00:27:32
  TRACK 35 AUDIO
    TITLE "0:"
    INDEX 01 00:29:03
  TRACK 36 AUDIO
    TITLE "12:cjc026_08165"
    INDEX 01 00:29:39
  TRACK 37 AUDIO
    TITLE "0:"
    INDEX 01 00:30:50
  TRACK 38 AUDIO
    TITLE "10:cjc026_08166"
    INDEX 01 00:31:10
  TRACK 39 AUDIO
    TITLE "0:"
    INDEX 01 00:32:35
  TRACK 40 AUDIO
    TITLE "11:cjc026_08167"
    INDEX 01 00:32:70
  TRACK 41 AUDIO
    TITLE "0:"
    INDEX 01 00:34:25
  TRACK 42 AUDIO
    TITLE "12:cjc026_08168"
    INDEX 01 00:34:60
  TRACK 43 AUDIO
    TITLE "0:"
    INDEX 01 00:36:13
  TRACK 44 AUDIO
    TITLE "10:cjc026_08169"
    INDEX 01 00:36:48
  TRACK 45 AUDIO
    TITLE "0:"
    INDEX 01 00:37:49
  TRACK 46 AUDIO
    TITLE "11:cjc026_08170"
    INDEX 01 00:38:17
  TRACK 47 AUDIO
    TITLE "0:"
    INDEX 01 00:39:34
  TRACK 48 AUDIO
    TITLE "12:cjc026_08171"
    INDEX 01 00:39:72
  TRACK 49 AUDIO
    TITLE "0:"
    INDEX 01 00:40:72
  TRACK 50 AUDIO
    TITLE "10:cjc026_08172"
    INDEX 01 00:41:40
  TRACK 51 AUDIO
    TITLE "0:"
    INDEX 01 00:42:63
  TRACK 52 AUDIO
    TITLE "11:cjc026_08173"
    INDEX 01 00:43:23
  TRACK 53 AUDIO
    TITLE "0:"
    INDEX 01 00:44:39
  TRACK 54 AUDIO
    TITLE "12:cjc026_08174"
    INDEX 01 00:45:00
  TRACK 55 AUDIO
    TITLE "0:"
    INDEX 01 00:46:24
  TRACK 56 AUDIO
    TITLE "10:cjc026_08175"
    INDEX 01 00:46:60
  TRACK 57 AUDIO
    TITLE "0:"
    INDEX 01 00:47:74
  TRACK 58 AUDIO
    TITLE "11:cjc026_08176"
    INDEX 01 00:48:36
  TRACK 59 AUDIO
    TITLE "0:"
    INDEX 01 00:49:42
  TRACK 60 AUDIO
    TITLE "12:cjc026_08177"
    INDEX 01 00:50:03
  TRACK 61 AUDIO
    TITLE "0:"
    INDEX 01 00:51:19
  TRACK 62 AUDIO
    TITLE "10:cjc026_08178"
    INDEX 01 00:51:54
  TRACK 63 AUDIO
    TITLE "0:"
    INDEX 01 00:53:10
  TRACK 64 AUDIO
    TITLE "11:cjc026_08179"
    INDEX 01 00:53:48
  TRACK 65 AUDIO
    TITLE "0:"
    INDEX 01 00:54:67
  TRACK 66 AUDIO
    TITLE "12:cjc026_08180"
    INDEX 01 00:55:30
  TRACK 67 AUDIO
    TITLE "0:"
    INDEX 01 00:56:60
